<svg version="1" width="200" height="200" id="Layer_1" xmlns="http://www.w3.org/2000/svg" viewBox="-282 374 46 46"><style>.st0{fill:#c03}.st1{fill:#fff}</style><title>Imported Layers</title><g id="MODULAIRE-BLOKKEN-"><g id="M6-CONTENTPAGE" transform="translate(-15 -14)"><g id="Imported-Layers" transform="translate(15 14)"><path id="Fill-1" class="st0" d="M-274 420h37.9v-37.8s0-7.7-7.7-7.7H-274s-7.7 0-7.7 7.7v30.1c.1 0 .1 7.7 7.7 7.7"/><path id="Fill-2" class="st1" d="M-249.7 397.3c1.4-1.6 2.5-3.5 2.9-5.1.2-.9.3-1.9.1-2.7-.7-3.7-5.4-4.4-10.5-1.6l-.7-3.6-5.4 3 .9 4.5c.6-.4 1.1-.6 1.6-.6 1.7-.2 2.2 1.7 1.1 4.2-.4.9-.9 1.7-1.6 2.4l1 5.3v.1c.8 3.6 5.5 4.3 10.6 1.5 5-2.8 8.6-7.9 8.1-11.6-.2 1.5-1.7 3.3-3.6 4.4-2 1-3.9 1-4.5-.2"/><path id="Fill-3" class="st1" d="M-264.8 400.2c-1.7.2-2.2-1.7-1.1-4.2.5-1 1.1-1.9 1.8-2.7l-1-5-10.6 5.9 3.1 16 10.6-5.9-.9-4.9c-.7.4-1.3.7-1.9.8"/></g></g></g></svg>